<svg width="90" height="90" viewBox="0 0 90 90" fill="none" xmlns="http://www.w3.org/2000/svg">
<path d="M10.9485 74.4165C3.87302 66.251 -0.0150294 55.8046 4.3662e-05 45C4.3662e-05 20.1465 20.1465 0 45 0C54.612 0 63.522 3.015 70.83 8.145L45 22.5V9C37.9424 8.99942 31.0402 11.0734 25.1517 14.964C19.2632 18.8546 14.6483 24.3903 11.8806 30.8827C9.11295 37.3751 8.3147 44.5378 9.58512 51.4802C10.8555 58.4226 14.1386 64.8385 19.026 69.93L10.9485 74.4165ZM79.0515 15.5835C86.1271 23.749 90.0151 34.1954 90.0001 45C90.0001 69.8535 69.8535 90 45 90C35.388 90 26.478 86.985 19.17 81.855L45 67.5V81C52.0577 81.0006 58.9599 78.9266 64.8484 75.036C70.7369 71.1454 75.3518 65.6097 78.1195 59.1173C80.8872 52.6249 81.6854 45.4622 80.415 38.5198C79.1445 31.5774 75.8615 25.1615 70.974 20.07L79.0515 15.5835Z" fill="#9BA0A5"/>
</svg>
