<svg width="28" height="28" viewBox="0 0 28 28" fill="none" xmlns="http://www.w3.org/2000/svg">
<path d="M6.37351 5.17182C8.4905 3.33743 11.1988 2.32942 14 2.33332C20.4435 2.33332 25.6667 7.55649 25.6667 14C25.6667 16.492 24.885 18.802 23.555 20.6967L19.8333 14H23.3333C23.3335 12.1702 22.7958 10.3808 21.7871 8.85412C20.7784 7.32748 19.3433 6.13101 17.6601 5.41347C15.9768 4.69593 14.1198 4.48898 12.32 4.81835C10.5201 5.14771 8.85671 5.99887 7.53668 7.26599L6.37351 5.17182ZM21.6265 22.8282C19.5095 24.6626 16.8012 25.6706 14 25.6667C7.55651 25.6667 2.33334 20.4435 2.33334 14C2.33334 11.508 3.11501 9.19799 4.44501 7.30332L8.16668 14H4.66668C4.66653 15.8298 5.20422 17.6192 6.2129 19.1459C7.22158 20.6725 8.65676 21.869 10.34 22.5865C12.0232 23.3041 13.8802 23.511 15.6801 23.1816C17.4799 22.8523 19.1433 22.0011 20.4633 20.734L21.6265 22.8282Z" fill="black"/>
</svg>
