<svg width="25" height="28" viewBox="0 0 25 28" fill="none" xmlns="http://www.w3.org/2000/svg">
<path d="M0.312256 15.25H7.81226V12.75H0.312256V1.30751C0.312274 1.1989 0.340594 1.09218 0.394423 0.997848C0.448252 0.903519 0.525732 0.824846 0.619227 0.769582C0.712721 0.714317 0.819004 0.68437 0.927597 0.682692C1.03619 0.681013 1.14335 0.707662 1.23851 0.76001L24.316 13.4525C24.414 13.5065 24.4957 13.5857 24.5526 13.682C24.6095 13.7783 24.6396 13.8881 24.6396 14C24.6396 14.1119 24.6095 14.2217 24.5526 14.318C24.4957 14.4143 24.414 14.4936 24.316 14.5475L1.23851 27.24C1.14335 27.2924 1.03619 27.319 0.927597 27.3173C0.819004 27.3156 0.712721 27.2857 0.619227 27.2304C0.525732 27.1752 0.448252 27.0965 0.394423 27.0022C0.340594 26.9078 0.312274 26.8011 0.312256 26.6925V15.25Z" fill="white"/>
</svg>
